<?xml version="1.0" encoding="iso-8859-1"?>
<!-- Generator: Adobe Illustrator 19.0.0, SVG Export Plug-In . SVG Version: 6.00 Build 0)  -->
<svg version="1.1" id="Capa_1" xmlns="http://www.w3.org/2000/svg" xmlns:xlink="http://www.w3.org/1999/xlink" x="0px" y="0px"
	 viewBox="0 0 511.999 511.999" style="enable-background:new 0 0 511.999 511.999;" xml:space="preserve">
<g>
	<g>
		<path d="M157.508,115.041c-33.954,22.443-59.887,56.081-72.397,95.667c-0.102,0.333-0.222,0.666-0.333,0.998
			c-1.57,5.069-2.876,10.249-3.994,15.505c-0.162,0.768-0.333,1.536-0.486,2.304c-0.785,3.934-1.314,7.953-1.835,11.981
			l39.774-15.761c4.292-1.715,6.519-6.502,5.052-10.897c-3.106-9.336-0.717-19.456,6.229-26.419l24.593-24.602
			c5.171-5.171,8.021-12.049,8.021-19.362v-11.102C162.133,126.988,160.521,120.682,157.508,115.041z"/>
	</g>
</g>
<g>
	<g>
		<path d="M430.208,285.401c-5.88,4.403-13.389,6.127-20.591,4.71c-7.202-1.417-13.508-5.837-17.28-12.126l-4.642-7.731
			l-12.228,55.014c-0.154,27.486-7.057,47.061-20.523,58.189c-9.66,7.987-20.233,9.412-26.564,9.412
			c-2.176,0-3.857-0.171-4.813-0.299c-5.282-0.179-10.052-2.406-13.858-6.46c-10.88-11.605-11.93-37.879-11.452-53.862
			c-11.913-1.92-23.006-8.354-31.241-18.313c-7.236-8.738-18.594-16.538-24.721-20.403c-6.647-4.198-11.998-10.103-15.479-17.067
			l-9.839-19.678c-2.748-5.504-3.823-11.597-3.106-17.63c2.321-19.447,11.896-42.931,19.507-59.204
			c2.56-5.461,7.876-9.037,13.892-9.344c5.973-0.367,11.725,2.722,14.839,7.919l8.474,14.123c1.621,2.714,4.446,3.226,6.562,2.799
			c1.169-0.239,3.942-1.161,4.412-4.557l0.128-0.981c1.92-16.205,12.416-29.961,27.392-35.951l19.78-7.91
			c8.457-6.161,2.645-31.855-2.978-46.464c-21.478-9.131-45.09-14.191-69.871-14.191c-30.285,0-58.803,7.612-83.849,20.932
			c4.565,8.277,7.049,17.596,7.049,27.034v11.102c0,11.878-4.625,23.04-13.013,31.428l-24.593,24.593
			c-2.355,2.364-3.166,5.794-2.116,8.96c4.318,12.954-2.227,27.068-14.908,32.145l-47.556,18.773
			c-0.034,1.425-0.213,2.807-0.213,4.241c0,12.826,1.417,25.318,3.985,37.393l31.898-11.964c7.356-2.748,15.607-1.732,22.067,2.739
			c6.46,4.471,10.308,11.836,10.308,19.695v12.843c0,11.546,6.852,21.939,17.459,26.487l26.317,11.281
			c8.166,3.499,15.479,8.448,21.751,14.729l5.163,5.163c14.942,14.933,20.617,36.838,14.814,57.156l-0.452,1.57
			c8.474,1.237,17.067,2.091,25.882,2.091c92.826,0,169.361-70.946,178.304-161.459L430.208,285.401z"/>
	</g>
</g>
<g>
	<g>
		<path d="M203.691,395.02l-5.163-5.163c-4.736-4.727-10.257-8.465-16.41-11.11l-26.317-11.281
			C138.914,360.23,128,343.675,128,325.303V312.46c0-2.295-1.075-4.361-2.97-5.666c-1.886-1.314-4.198-1.604-6.357-0.785
			l-33.536,12.57c1.493,4.719,3.217,9.327,5.086,13.875c15.189,36.907,43.401,68.156,78.131,87.953
			c14.054,8.013,29.184,14.148,44.945,18.022l0.862-3.012C218.257,421.055,214.246,405.576,203.691,395.02z"/>
	</g>
</g>
<g>
	<g>
		<path d="M434.338,247.445c-0.128-1.271-0.316-2.526-0.461-3.789c-0.469-3.994-1.084-7.936-1.809-11.844
			c-0.307-1.638-0.572-3.294-0.922-4.924c-0.939-4.369-2.074-8.67-3.328-12.911c-0.657-2.219-1.391-4.412-2.133-6.596
			c-0.862-2.543-1.792-5.052-2.765-7.543c-1.271-3.268-2.637-6.502-4.096-9.685c-1.203-2.62-2.432-5.222-3.746-7.774
			c-1.135-2.185-2.33-4.343-3.55-6.485c-1.442-2.517-2.961-4.983-4.514-7.424c-1.519-2.381-3.081-4.736-4.71-7.049
			c-2.039-2.876-4.13-5.709-6.332-8.457c-1.135-1.425-2.287-2.825-3.465-4.215c-3.089-3.635-6.246-7.202-9.609-10.573
			c-0.358-0.367-0.759-0.7-1.126-1.067c-3.362-3.32-6.869-6.485-10.479-9.523c-0.845-0.717-1.69-1.425-2.551-2.125
			c-4.062-3.294-8.226-6.468-12.561-9.404c-0.051-0.034-0.102-0.06-0.145-0.094c-2.859-1.929-5.888-3.618-8.866-5.385
			c4.215,17.229,6.204,40.585-9.916,50.372c-0.401,0.239-0.828,0.452-1.254,0.623l-20.574,8.226
			c-9.199,3.661-15.625,12.117-16.802,22.059l-0.179,1.348c-1.314,9.566-8.346,16.998-17.894,18.953
			c-9.847,1.988-19.499-2.202-24.61-10.735l-7.74-12.894c-5.871,12.689-15.309,35.183-17.399,52.642
			c-0.324,2.714,0.171,5.478,1.425,7.987l9.839,19.678c2.091,4.181,5.316,7.731,9.327,10.266
			c8.533,5.385,20.446,13.918,28.757,23.962c6.69,8.081,16.009,12.723,25.583,12.723c2.731,0,5.376,1.135,7.236,3.123
			c1.852,1.971,2.816,4.659,2.645,7.356c-1.468,22.699,1.22,42.505,6.536,48.179c1.792,1.911,2.628,1.024,3.729,1.229
			c0.307,0.043,9.958,1.587,18.398-5.547c9.242-7.808,14.123-23.646,14.123-45.807c0-0.623,0.068-1.246,0.205-1.852l14.2-63.906
			c1.237-5.547,5.658-9.719,11.264-10.633c5.632-0.913,11.127,1.647,14.046,6.519l8.849,14.754c1.314,2.193,3.422,3.678,5.931,4.164
			c2.5,0.486,5.018-0.085,7.066-1.613l15.036-11.281C434.893,256.098,434.748,251.737,434.338,247.445z"/>
	</g>
</g>
<g>
	<g>
		<path d="M256,0.055c-8.823,0-17.724,0.452-26.453,1.348c-4.685,0.478-8.098,4.668-7.62,9.361c0.452,4.386,4.164,7.654,8.482,7.654
			c0.29,0,0.58-0.009,0.879-0.043c8.149-0.836,16.461-1.254,24.713-1.254c4.71,0,8.533-3.823,8.533-8.533
			C264.533,3.878,260.71,0.055,256,0.055z"/>
	</g>
</g>
<g>
	<g>
		<path d="M36.216,141.879c-4.25-2.022-9.344-0.222-11.375,4.028c-7.509,15.744-13.414,32.316-17.553,49.246
			c-1.118,4.582,1.69,9.199,6.263,10.317c0.683,0.162,1.365,0.239,2.031,0.239c3.84,0,7.33-2.611,8.286-6.511
			c3.857-15.795,9.37-31.258,16.375-45.943C42.274,148.996,40.474,143.91,36.216,141.879z"/>
	</g>
</g>
<g>
	<g>
		<path d="M189.047,17.591c-1.425-4.489-6.229-6.963-10.718-5.547c-16.606,5.282-32.734,12.314-47.94,20.89
			c-4.104,2.313-5.555,7.526-3.234,11.631c1.57,2.773,4.463,4.335,7.441,4.335c1.425,0,2.859-0.358,4.181-1.101
			c14.182-8.004,29.227-14.566,44.723-19.49C187.989,26.884,190.473,22.079,189.047,17.591z"/>
	</g>
</g>
<g>
	<g>
		<path d="M20.429,296.204c-2.227-13.175-3.362-26.684-3.362-40.158c0-2.85,0.051-5.692,0.154-8.533
			c0.162-4.71-3.524-8.661-8.226-8.823c-4.668-0.247-8.661,3.524-8.832,8.235C0.06,249.945,0,252.991,0,256.046
			c0,14.421,1.212,28.894,3.601,43.008c0.708,4.164,4.318,7.108,8.405,7.108c0.469,0,0.947-0.034,1.434-0.119
			C18.082,305.258,21.214,300.855,20.429,296.204z"/>
	</g>
</g>
<g>
	<g>
		<path d="M124.245,455.402c-13.551-8.969-26.24-19.379-37.726-30.933c-3.328-3.345-8.73-3.362-12.066-0.034
			c-3.345,3.328-3.362,8.721-0.034,12.075c12.297,12.373,25.89,23.518,40.405,33.135c1.451,0.956,3.089,1.417,4.702,1.417
			c2.765,0,5.478-1.34,7.117-3.823C129.254,463.304,128.179,458.005,124.245,455.402z"/>
	</g>
</g>
<g>
	<g>
		<path d="M321.664,494.869c-1.084-4.608-5.7-7.424-10.266-6.34c-15.77,3.746-32.043,5.879-48.375,6.357
			c-4.71,0.136-8.414,4.062-8.286,8.772c0.137,4.625,3.925,8.286,8.525,8.286c0.085,0,0.171,0,0.247,0
			c17.493-0.503,34.927-2.799,51.823-6.801C319.923,504.051,322.756,499.451,321.664,494.869z"/>
	</g>
</g>
<g>
	<g>
		<path d="M214.357,491.37c-16.034-2.825-31.821-7.305-46.908-13.329c-4.378-1.749-9.344,0.375-11.093,4.762
			c-1.749,4.378,0.384,9.344,4.762,11.085c16.179,6.46,33.092,11.264,50.278,14.285c0.503,0.085,0.998,0.128,1.485,0.128
			c4.07,0,7.663-2.91,8.397-7.057C222.106,496.609,219,492.189,214.357,491.37z"/>
	</g>
</g>
<g>
	<g>
		<path d="M55.817,386.538c-8.909-13.619-16.427-28.203-22.357-43.341c-1.724-4.386-6.673-6.554-11.059-4.83
			s-6.554,6.673-4.83,11.059c6.357,16.213,14.421,31.838,23.962,46.447c1.638,2.509,4.369,3.866,7.151,3.866
			c1.604,0,3.217-0.452,4.659-1.391C57.284,395.771,58.394,390.489,55.817,386.538z"/>
	</g>
</g>
<g>
	<g>
		<path d="M99.763,63.935c-3.098-3.55-8.491-3.917-12.041-0.819C74.59,74.585,62.583,87.428,52.045,101.303
			c-2.85,3.746-2.125,9.105,1.63,11.955c1.545,1.169,3.362,1.741,5.154,1.741c2.577,0,5.12-1.161,6.801-3.371
			c9.847-12.954,21.052-24.943,33.314-35.652C102.494,72.878,102.861,67.485,99.763,63.935z"/>
	</g>
</g>
<g>
	<g>
		<path d="M391.296,463.457c-2.441-4.028-7.689-5.325-11.716-2.876c-7.014,4.25-14.336,8.175-21.76,11.682
			c-4.267,2.005-6.093,7.091-4.079,11.358c1.451,3.089,4.523,4.898,7.723,4.898c1.22,0,2.458-0.265,3.635-0.819
			c7.962-3.746,15.812-7.962,23.322-12.518C392.457,472.733,393.745,467.494,391.296,463.457z"/>
	</g>
</g>
<g>
	<g>
		<path d="M510.2,378.807c-2.901-3.729-8.269-4.395-11.972-1.502l-28.826,22.426l-38.34-23.006
			c-4.045-2.424-9.284-1.118-11.708,2.927c-2.424,4.045-1.118,9.284,2.927,11.708l32.683,19.601l-29.918,23.27l-21.265-7.091
			c-4.489-1.51-9.31,0.93-10.795,5.393c-1.493,4.471,0.922,9.301,5.393,10.795l19.763,6.588v19.447c0,4.71,3.823,8.533,8.533,8.533
			c4.71,0,8.533-3.823,8.533-8.533v-21.427l30.711-23.885l12.561,31.42c1.34,3.337,4.54,5.367,7.927,5.367
			c1.058,0,2.125-0.196,3.166-0.614c4.378-1.758,6.502-6.716,4.753-11.093l-14.396-35.977l28.774-22.374
			C512.427,387.886,513.092,382.527,510.2,378.807z"/>
	</g>
</g>
<g>
</g>
<g>
</g>
<g>
</g>
<g>
</g>
<g>
</g>
<g>
</g>
<g>
</g>
<g>
</g>
<g>
</g>
<g>
</g>
<g>
</g>
<g>
</g>
<g>
</g>
<g>
</g>
<g>
</g>
</svg>
